<svg width="283" height="57" viewBox="0 0 283 57" fill="none" xmlns="http://www.w3.org/2000/svg">
<path d="M166.824 0.241211L147.389 19.6287L141.836 25.168C140.767 26.235 139.474 27.2492 138.828 28.6301C145.855 22.1495 152.42 15.0716 159.188 8.31935L164.51 3.01086C165.299 2.22362 166.556 1.3426 166.824 0.241211Z" fill="white"/>
<path d="M151.554 42.2473C149.207 42.2473 146.173 43.1013 143.918 42.2891C142.516 41.7841 141.471 40.4978 140.448 39.4777L134.433 33.4768C131.489 35.545 129.234 38.6463 126.566 41.0541C125.058 42.4154 123.617 43.82 122.17 45.2469C121.419 45.9877 120.567 46.6114 120.088 47.5558H125.409C126.328 47.5558 127.372 47.698 128.186 47.1858C129.758 46.1957 131.01 44.4566 132.35 43.1796C132.857 42.6962 133.654 41.7555 134.433 41.7894C135.169 41.8217 135.808 42.6983 136.283 43.1705C137.576 44.4545 139.317 47.0259 141.142 47.4824C143.426 48.0537 146.423 47.5558 148.777 47.5558H165.204C164.534 45.9037 162.749 44.6431 161.502 43.4014C158.502 40.4131 155.351 37.535 152.248 34.6516C151.086 33.5719 149.921 32.5093 148.777 31.4085C148.39 31.0358 147.622 30.5518 147.535 29.9755C147.418 29.2016 148.582 28.2209 149.048 27.7067C150.694 25.8905 152.49 24.2153 154.138 22.3982C158.924 17.1214 164.063 12.1423 168.926 6.93433C170.975 4.7404 173.421 2.69414 175.153 0.241016H169.831C169.029 0.241016 168.052 0.0987675 167.286 0.380282C166.359 0.721273 165.652 1.64108 164.973 2.31825L161.271 6.01111L147.389 19.8594L141.142 26.0911C140.542 26.69 139.158 27.6601 139.273 28.6299C139.434 29.9919 141.838 31.6304 142.762 32.5536C144.845 34.6352 146.838 36.8352 148.816 39.0161C149.781 40.0796 150.828 40.9952 151.554 42.2473Z" fill="white"/>
<path d="M267.699 0.702191V27.7063C267.699 32.1998 267.247 37.2802 270.13 41.092C273.295 45.2725 278.129 46.184 282.969 47.0938V39.2465C280.748 38.7338 278.233 37.9756 276.872 36.015C275.984 34.7338 275.947 32.8973 275.734 31.3991C275.121 27.1041 275.796 22.5751 275.796 18.2433H281.349V9.93435H275.796V0.702191C273.133 0.209134 270.371 0.491747 267.699 0.702191ZM174.69 0.702191L174.921 0.932995L174.69 0.702191ZM174.459 0.932995L174.69 1.1638L174.459 0.932995ZM68.4934 1.1638V31.1683C69.2817 29.2946 68.7248 26.2746 68.7248 24.2442V8.78033V3.93345C68.7248 3.0142 68.8525 2.01747 68.4934 1.1638Z" fill="white"/>
<path d="M68.7248 1.16455V21.7061C68.7248 25.0698 69.3181 29.0796 68.3144 32.3231C66.6787 37.6087 59.685 40.3214 54.8429 37.7871C49.1143 34.7885 47.0439 26.8528 52.0675 22.1893C52.878 21.4368 53.8199 20.8281 54.8429 20.4018C57.5534 19.2724 60.5482 19.3985 63.1721 20.665C64.4418 21.2778 65.5184 22.2013 66.8739 22.6293V16.3976C66.8739 15.6474 67.1 14.4243 66.6361 13.7777C66.2094 13.1828 65.2167 12.994 64.5603 12.7842C62.2651 12.0506 60.0049 12.001 57.6193 12.0125C46.9703 12.0637 39.9451 22.1201 41.4923 32.0923C41.769 33.8748 42.4041 35.5696 43.2182 37.17C49.1405 48.812 66.05 49.1531 73.5474 39.0164C76.8978 34.4866 76.5913 29.3531 76.5913 24.0141V1.16455H68.7248Z" fill="white"/>
<path d="M76.591 1.16455V30.015C76.9501 29.1613 76.8224 28.1647 76.8224 27.2454V22.6293V7.85787C76.8224 5.88821 77.3559 2.98306 76.591 1.16455ZM174.227 1.16455L174.458 1.39535L174.227 1.16455ZM173.996 1.39535L174.227 1.62616L173.996 1.39535ZM173.764 1.62616L173.996 1.85696L173.764 1.62616ZM173.533 1.85696L173.764 2.08777L173.533 1.85696ZM173.302 2.08777L173.533 2.31857L173.302 2.08777ZM173.07 2.31857L173.302 2.54937L173.07 2.31857ZM172.839 2.54937L173.07 2.78018L172.839 2.54937ZM172.607 2.78018L172.839 3.01098L172.607 2.78018ZM172.376 3.01098L172.607 3.24179L172.376 3.01098ZM172.145 3.24179L172.376 3.47259L172.145 3.24179ZM170.757 4.85741L170.988 5.08822L170.757 4.85741ZM170.525 5.08822L170.757 5.31902L170.525 5.08822ZM170.294 5.31902L170.525 5.54983L170.294 5.31902ZM170.062 5.54983L170.294 5.78063L170.062 5.54983ZM169.831 5.78063L170.062 6.01143L169.831 5.78063ZM169.6 6.01143L169.831 6.24224L169.6 6.01143ZM169.368 6.24224L169.6 6.47304L169.368 6.24224ZM169.137 6.47304L169.368 6.70385L169.137 6.47304ZM168.906 6.70385L169.137 6.93465L168.906 6.70385ZM168.674 6.93465L168.906 7.16545L168.674 6.93465ZM168.443 7.16545L168.674 7.39626L168.443 7.16545ZM168.212 7.39626L168.443 7.62706L168.212 7.39626ZM103.892 9.24269C104.321 10.7975 104.587 12.0001 104.586 13.628C104.84 13.0249 104.816 12.436 104.818 11.7815C107.047 13.3484 108.906 15.6293 110.833 17.5516C111.702 18.4182 113.033 19.3714 113.47 20.5521C113.842 21.5605 113.609 22.9535 113.609 24.0141V31.3999C114.043 30.3684 113.841 29.0477 113.841 27.9378V20.7829C115.475 21.931 116.826 23.5297 118.237 24.9374C119.493 26.1906 120.958 27.461 121.707 29.0918C120.322 29.736 119.307 31.0257 118.237 32.0923C116.965 33.3589 115.55 34.4742 114.324 35.7851C113.371 36.8041 112.45 38.3713 111.064 38.7856C109.699 40.5732 107.789 41.8689 106.437 43.6325C106.765 43.5235 106.857 43.4446 107.131 43.1709C104.044 46.2498 100.736 49.0891 97.6452 52.1722C96.308 53.5063 94.8027 54.7822 93.712 56.3267H99.0334C99.8353 56.3267 100.813 56.4689 101.578 56.1875C102.506 55.8464 103.213 54.9266 103.892 54.2495L107.594 50.5566L121.013 37.17L127.029 31.1691C127.634 30.5651 129.063 29.5768 129.063 28.6302C129.063 28.0696 128.532 27.6181 128.182 27.2454C127.396 26.4104 126.656 25.5338 125.863 24.7066C122.818 21.5297 119.385 18.3885 116.849 14.782H122.401C123.321 14.782 124.364 14.6397 125.178 15.1521C127.545 16.6431 129.579 19.1779 131.656 21.0529C132.371 21.6983 133.23 22.9977 134.2 23.2419C134.75 23.3804 135.143 22.9725 135.491 22.6147C136.303 21.781 137.077 20.914 137.903 20.0905C140.109 17.8892 142.276 15.6731 144.402 13.3972C145.599 12.1145 146.964 11.0053 147.851 9.47349C145.922 9.46819 142.873 8.52277 141.142 9.61276C139.487 10.655 137.906 12.4792 136.515 13.859C136.004 14.365 135.234 15.4616 134.432 15.4616C133.632 15.4616 132.858 14.3654 132.35 13.8588C131.008 12.5214 129.154 9.78988 127.26 9.31606C125.043 8.76174 122.141 9.24269 119.856 9.24269H103.892ZM166.361 9.47349L166.592 9.7043L166.361 9.47349ZM166.129 9.7043L166.361 9.9351L166.129 9.7043ZM165.898 9.9351L166.129 10.1659L165.898 9.9351ZM244.562 46.6329H253.817V30.4767C253.817 27.9754 253.308 24.9117 254.508 22.6293C256.278 19.2613 260.239 18.244 263.765 18.244V12.4739C263.765 11.8622 263.943 10.8506 263.527 10.3372C262.847 9.4965 260.114 9.88746 259.138 9.95576C254.129 10.3059 249.282 13.5443 246.748 17.7824C244.504 21.5387 244.562 26.0085 244.562 30.2459V46.6329ZM165.667 10.1659L165.898 10.3967L165.667 10.1659ZM16.4361 10.3967C17.587 10.8784 19.1288 10.6275 20.3693 10.6275C19.2185 10.1458 17.6767 10.3967 16.4361 10.3967ZM165.435 10.3967L165.667 10.6275L165.435 10.3967ZM11.1147 12.0123C11.8586 12.1365 12.4862 11.725 13.197 11.4928C14.1711 11.1748 15.1845 10.9415 16.2048 10.8583C14.6741 10.2626 12.5335 11.4318 11.1147 12.0123Z" fill="white"/>
<path d="M29.3929 25.8602H10.421L10.6523 32.0919L28.9302 32.3227L38.1848 32.0919C38.1848 24.8061 35.9021 18.1372 29.6243 13.865C21.3356 8.22451 9.51651 10.0765 3.83171 18.4745C2.02172 21.1483 1.04911 24.279 0.742921 27.4759C-0.280987 38.1655 8.81763 46.8634 19.2128 46.8634C23.0132 46.8634 26.4638 46.0727 29.6243 43.8895C30.366 43.3771 31.8083 42.6796 32.0985 41.7649C32.2912 41.1563 31.7965 40.5964 31.4312 40.1701C30.5486 39.1398 29.5572 38.1692 28.6329 37.1742C28.2229 36.7332 27.7419 36.1965 27.0792 36.251C26.3442 36.3115 25.6147 36.9921 24.997 37.3471C23.7867 38.0423 22.4464 38.6602 21.0638 38.9087C15.0294 39.9942 8.6212 35.1612 8.61146 28.8607C8.59637 19.0994 21.9483 14.7707 27.6743 22.6299C28.405 23.6327 29.0472 24.6656 29.3929 25.8602Z" fill="white"/>
<path d="M21.0637 10.6263C21.473 10.8061 21.7661 10.8369 22.2205 10.8571C21.8113 10.6773 21.5181 10.6465 21.0637 10.6263ZM165.204 10.6263L165.435 10.8571L165.204 10.6263ZM235.308 41.7848C234.553 40.1694 232.864 38.665 231.604 37.4007C231.166 36.9638 230.641 36.3318 229.986 36.2506C229.329 36.1689 228.669 36.7214 228.135 37.0268C227.146 37.592 225.982 38.2205 224.876 38.5134C219.217 40.0116 213.547 37.0764 211.789 31.3986C210.305 26.6051 213.26 21.0724 217.955 19.3181C223.642 17.1932 230.199 19.9624 232.069 25.8593H213.328C213.296 27.4177 212.43 30.1705 213.58 31.4935C214.499 32.5517 216.95 32.0273 218.187 32.1118C222.933 32.4359 228.024 32.7147 232.763 32.1568C234.658 31.9341 236.64 32.092 238.547 32.0911C239.151 32.0908 240.159 32.2616 240.587 31.7211C241.238 30.9015 240.816 29.1063 240.694 28.1674C240.224 24.5581 239.167 21.2049 236.983 18.2428C230.986 10.1067 217.979 7.69567 210.09 14.5866C207.306 17.0183 205.124 19.9645 204.082 23.5513C201.59 32.1301 205.785 41.951 214.253 45.3731C218.674 47.1593 224.317 47.6514 228.829 45.8347C231.247 44.8617 233.212 43.2862 235.308 41.7848ZM22.4519 10.8571C22.8003 11.0147 22.9875 11.0477 23.3774 11.0879C23.0289 10.9302 22.8418 10.8973 22.4519 10.8571ZM80.7559 10.8571V33.0143C81.4275 31.4173 80.9872 28.9706 80.9872 27.2442V15.9348C80.9872 14.3916 81.3572 12.2867 80.7559 10.8571Z" fill="white"/>
<path d="M80.9875 10.8579V25.6294C80.9875 28.1971 80.7226 30.9293 81.0544 33.4767C82.4324 44.0549 95.3277 50.1747 104.587 44.7819C108.007 42.7896 111.718 39.4363 112.907 35.5539C113.794 32.6573 113.61 29.5413 113.61 26.5526C113.61 24.7516 114.19 21.7212 113.372 20.0901C112.75 18.8498 111.342 17.8275 110.371 16.8588C108.711 15.203 106.961 12.7778 104.818 11.7811C104.818 17.469 105.399 23.1802 104.857 28.8606C104.692 30.5886 105.078 32.3222 104.268 33.9383C101.47 39.521 92.652 39.073 89.9075 33.7075C88.8275 31.5961 89.3166 28.618 89.3166 26.3218V10.8579H80.9875Z" fill="white"/>
<path d="M89.3166 10.8579V32.3227C89.9649 30.7814 89.5479 28.4489 89.5479 26.7834V15.9356C89.5479 14.3925 89.9179 12.2875 89.3166 10.8579ZM164.973 10.8579L165.204 11.0887L164.973 10.8579ZM23.6089 11.0887L23.8403 11.3195L23.6089 11.0887ZM164.742 11.0887L164.973 11.3195L164.742 11.0887ZM24.5344 11.3195C24.8231 11.4776 24.8925 11.4923 25.2285 11.5503C24.9397 11.3923 24.8701 11.3775 24.5344 11.3195ZM164.51 11.3195L164.742 11.5503L164.51 11.3195ZM164.742 46.8633C165.328 47.9596 165.204 49.1067 165.204 50.3254V56.3263H173.071C173.071 49.5425 172.839 42.7943 172.839 36.0155C172.839 32.6301 172.405 28.6404 173.557 25.3986C175.691 19.401 183.661 17.3608 188.572 21.1354C192.746 24.3433 193.513 30.7998 190.116 34.8606C188.822 36.4072 187.013 37.2951 185.102 37.8521C181.078 39.0243 178.249 36.4465 174.69 35.3231L174.922 44.5553C179.262 45.1383 182.993 46.7422 187.415 45.3236C190.212 44.4267 192.882 43.0802 195.05 41.0725C202.496 34.1783 201.514 21.0725 193.662 14.9011C187.88 10.3565 179.26 10.2392 173.071 14.0003C170.55 15.5319 168.594 17.5754 167.071 20.0901C165.202 23.1761 165.204 26.541 165.204 30.0146V39.7084C165.204 41.8286 165.795 44.973 164.742 46.8633ZM164.279 11.5503L164.51 11.7811L164.279 11.5503ZM25.6912 11.7811L25.9226 12.0119L25.6912 11.7811ZM56.4628 11.7811C57.7281 12.3108 59.4934 12.0119 60.8587 12.0119C59.5934 11.4822 57.828 11.7811 56.4628 11.7811ZM164.047 11.7811L164.279 12.0119L164.047 11.7811ZM54.8432 12.0119C55.2525 12.1917 55.5456 12.2225 56 12.2427C55.5907 12.063 55.2976 12.0321 54.8432 12.0119ZM61.5528 12.0119C61.9012 12.1696 62.0884 12.2026 62.4782 12.2427C62.1298 12.0851 61.9426 12.0521 61.5528 12.0119ZM163.816 12.0119L164.047 12.2427L163.816 12.0119ZM10.6525 12.2427L10.8839 12.4735L10.6525 12.2427ZM26.848 12.2427L27.0794 12.4735L26.848 12.2427ZM54.1491 12.2427C54.4379 12.4008 54.5075 12.4156 54.8432 12.4735C54.5545 12.3155 54.4851 12.3007 54.1491 12.2427ZM62.941 12.2427C63.2297 12.4008 63.2994 12.4156 63.6351 12.4735C63.3463 12.3155 63.2769 12.3007 62.941 12.2427ZM163.585 12.2427L163.816 12.4735L163.585 12.2427ZM10.1898 12.4735L10.4211 12.7043L10.1898 12.4735ZM27.3108 12.4735L27.5421 12.7043L27.3108 12.4735ZM52.9923 12.4735C53.3407 12.6312 53.5279 12.6642 53.9177 12.7043C53.5693 12.5467 53.3821 12.5137 52.9923 12.4735ZM63.8664 12.4735C64.1552 12.6316 64.2246 12.6464 64.5605 12.7043C64.2718 12.5463 64.2024 12.5315 63.8664 12.4735ZM163.353 12.4735L163.585 12.7043L163.353 12.4735ZM9.88129 12.7813C9.77845 12.8839 10.0227 12.871 10.0355 12.8582C10.1384 12.7556 9.89413 12.7685 9.88129 12.7813ZM27.7735 12.7043L28.0049 12.9351L27.7735 12.7043ZM52.2982 12.7043C52.5869 12.8624 52.6563 12.8772 52.9923 12.9351C52.7035 12.7771 52.6341 12.7623 52.2982 12.7043ZM64.5605 12.7043L64.7919 12.9351L64.5605 12.7043ZM9.49568 12.9351L9.72704 13.1659L9.49568 12.9351ZM28.2362 12.9351L28.4676 13.1659L28.2362 12.9351ZM51.9898 13.0121C51.8868 13.1147 52.1311 13.1018 52.1439 13.089C52.2468 12.9864 52.0025 12.9993 51.9898 13.0121ZM65.2546 12.9351L65.486 13.1659L65.2546 12.9351ZM9.03295 13.1659L9.26431 13.3968L9.03295 13.1659ZM28.699 13.1659L28.9303 13.3968L28.699 13.1659ZM51.5271 13.2429C51.4241 13.3455 51.6684 13.3326 51.6811 13.3198C51.7841 13.2172 51.5398 13.2301 51.5271 13.2429ZM65.9487 13.1659L66.1801 13.3968L65.9487 13.1659ZM8.72447 13.4737C8.62163 13.5763 8.86586 13.5634 8.8787 13.5506C8.98154 13.448 8.73731 13.4609 8.72447 13.4737ZM28.9303 13.3968L29.1617 13.6276L28.9303 13.3968ZM51.0643 13.4737C50.9614 13.5763 51.2057 13.5634 51.2184 13.5506C51.3214 13.448 51.077 13.4608 51.0643 13.4737ZM66.5658 13.4737C66.4628 13.5763 66.7071 13.5635 66.7199 13.5506C66.8228 13.448 66.5785 13.4609 66.5658 13.4737ZM8.33885 13.6276L8.57022 13.8584L8.33885 13.6276ZM29.3931 13.6276L29.6244 13.8584L29.3931 13.6276ZM50.4473 13.6276L50.6786 13.8584L50.4473 13.6276ZM66.8742 13.6276V19.6285C66.8742 20.6636 67.0583 21.777 66.4114 22.6289C67.3589 22.9852 67.1055 21.3829 67.1055 20.7825V16.1664C67.1055 15.3256 67.2411 14.3858 66.8742 13.6276ZM8.10749 13.8584L8.33885 14.0892L8.10749 13.8584ZM29.6244 13.8584L29.8558 14.0892L29.6244 13.8584ZM49.9845 13.8584L50.2159 14.0892L49.9845 13.8584ZM7.64476 14.0892L7.87612 14.32L7.64476 14.0892ZM30.0872 14.0892L30.3185 14.32L30.0872 14.0892ZM49.5218 14.0892L49.7532 14.32L49.5218 14.0892ZM161.965 14.0892L162.197 14.32L161.965 14.0892ZM7.41339 14.32L7.64476 14.5508L7.41339 14.32ZM30.3185 14.32L30.5499 14.5508L30.3185 14.32ZM49.2134 14.3969C49.1104 14.4995 49.3548 14.4867 49.3675 14.4738C49.4704 14.3713 49.2261 14.3841 49.2134 14.3969ZM161.734 14.32L161.965 14.5508L161.734 14.32ZM7.18203 14.5508L7.41339 14.7816L7.18203 14.5508ZM30.5499 14.5508L30.7812 14.7816L30.5499 14.5508ZM48.8277 14.5508L49.0591 14.7816L48.8277 14.5508ZM161.502 14.5508L161.734 14.7816L161.502 14.5508ZM6.95066 14.7816L7.18203 15.0124L6.95066 14.7816ZM48.365 14.7816L48.5963 15.0124L48.365 14.7816ZM161.271 14.7816L161.502 15.0124L161.271 14.7816ZM6.7193 15.0124L6.95066 15.2432L6.7193 15.0124ZM31.244 15.0124L31.4753 15.2432L31.244 15.0124ZM48.1336 15.0124L48.365 15.2432L48.1336 15.0124ZM161.04 15.0124L161.271 15.2432L161.04 15.0124ZM31.4753 15.2432L31.7067 15.474L31.4753 15.2432ZM47.9023 15.2432L48.1336 15.474L47.9023 15.2432ZM160.808 15.2432L161.04 15.474L160.808 15.2432ZM31.7067 15.474L31.9381 15.7048L31.7067 15.474ZM47.4395 15.474L47.6709 15.7048L47.4395 15.474ZM160.577 15.474L160.808 15.7048L160.577 15.474ZM31.9381 15.7048L32.1694 15.9356L31.9381 15.7048ZM47.2082 15.7048L47.4395 15.9356L47.2082 15.7048ZM160.346 15.7048L160.577 15.9356L160.346 15.7048ZM32.1694 15.9356L32.4008 16.1664L32.1694 15.9356ZM46.9768 15.9356L47.2082 16.1664L46.9768 15.9356ZM160.114 15.9356L160.346 16.1664L160.114 15.9356ZM5.56247 16.1664L5.79384 16.3972L5.56247 16.1664ZM32.4008 16.1664L32.6322 16.3972L32.4008 16.1664ZM159.883 16.1664L160.114 16.3972L159.883 16.1664ZM5.33111 16.3972L5.56247 16.628L5.33111 16.3972ZM32.6322 16.3972L32.8635 16.628L32.6322 16.3972ZM46.2827 16.3972L46.5141 16.628L46.2827 16.3972ZM159.652 16.3972L159.883 16.628L159.652 16.3972ZM5.09974 16.628L5.33111 16.8588L5.09974 16.628ZM32.8635 16.628L33.0949 16.8588L32.8635 16.628ZM46.0513 16.628L46.2827 16.8588L46.0513 16.628ZM159.42 16.628L159.652 16.8588L159.42 16.628ZM4.86838 16.8588L5.09974 17.0896L4.86838 16.8588ZM33.0949 16.8588L33.3263 17.0896L33.0949 16.8588ZM45.82 16.8588L46.0513 17.0896L45.82 16.8588ZM104.818 16.8588V28.399C105.227 27.4262 105.049 26.2145 105.049 25.1678V19.8593C105.049 18.876 105.202 17.7725 104.818 16.8588ZM159.189 16.8588L159.42 17.0896L159.189 16.8588ZM4.63701 17.0896L4.86838 17.3204L4.63701 17.0896ZM45.5886 17.0896L45.82 17.3204L45.5886 17.0896ZM158.957 17.0896L159.189 17.3204L158.957 17.0896ZM158.726 17.3204L158.957 17.5512L158.726 17.3204ZM4.17428 17.782L4.40565 18.0128L4.17428 17.782ZM33.789 17.782L34.0204 18.0128L33.789 17.782ZM3.94292 18.0128L4.17428 18.2436L3.94292 18.0128ZM34.0204 18.0128L34.2517 18.2436L34.0204 18.0128ZM44.8945 18.0128L45.1259 18.2436L44.8945 18.0128ZM34.2517 18.2436L34.4831 18.4744L34.2517 18.2436ZM44.6631 18.2436L44.8945 18.4744L44.6631 18.2436ZM17.3621 18.4744C17.8369 18.6762 18.2291 18.6944 18.7503 18.7052C18.2755 18.5035 17.8833 18.4853 17.3621 18.4744ZM20.1385 18.4744C20.6132 18.6762 21.0054 18.6944 21.5267 18.7052C21.0519 18.5035 20.6597 18.4853 20.1385 18.4744ZM44.4318 18.4744L44.6631 18.7052L44.4318 18.4744ZM3.48019 18.7052L3.71155 18.936L3.48019 18.7052ZM16.4366 18.7052C16.7255 18.8633 16.7949 18.8781 17.1307 18.936C16.8419 18.778 16.7725 18.7632 16.4366 18.7052ZM21.5267 18.7052C21.8154 18.8633 21.8848 18.8781 22.2207 18.936C21.932 18.778 21.8624 18.7632 21.5267 18.7052ZM15.5112 18.936C15.8 19.0941 15.8694 19.1089 16.2053 19.1669C15.9164 19.0088 15.847 18.994 15.5112 18.936ZM22.4521 18.936C22.7409 19.0941 22.8103 19.1089 23.1462 19.1669C22.8575 19.0088 22.7881 18.994 22.4521 18.936ZM34.7145 18.936L34.9458 19.1669L34.7145 18.936ZM157.338 18.936L157.569 19.1669L157.338 18.936ZM3.24882 19.1669L3.48019 19.3977L3.24882 19.1669ZM15.2027 19.2438C15.0998 19.3464 15.3441 19.3335 15.3569 19.3207C15.4598 19.2181 15.2155 19.231 15.2027 19.2438ZM23.3005 19.2438C23.1976 19.3464 23.4419 19.3335 23.4546 19.3207C23.5576 19.2181 23.3133 19.231 23.3005 19.2438ZM43.9691 19.1669L44.2004 19.3977L43.9691 19.1669ZM157.106 19.1669L157.338 19.3977L157.106 19.1669ZM3.01746 19.3977L3.24882 19.6285L3.01746 19.3977ZM14.5857 19.3977L14.8171 19.6285L14.5857 19.3977ZM23.8403 19.3977L24.0717 19.6285L23.8403 19.3977ZM43.7377 19.3977L43.9691 19.6285L43.7377 19.3977ZM156.875 19.3977L157.106 19.6285L156.875 19.3977ZM14.123 19.6285L14.3543 19.8593L14.123 19.6285ZM24.303 19.6285L24.5344 19.8593L24.303 19.6285ZM35.1772 19.6285L35.4085 19.8593L35.1772 19.6285ZM56.9255 19.6285C58.0185 20.086 59.4497 19.8593 60.6273 19.8593C59.5344 19.4018 58.1031 19.6285 56.9255 19.6285ZM156.644 19.6285L156.875 19.8593L156.644 19.6285ZM2.78609 19.8593L3.01746 20.0901L2.78609 19.8593ZM13.8145 19.9362C13.7117 20.0388 13.9559 20.026 13.9687 20.0131C14.0716 19.9106 13.8273 19.9234 13.8145 19.9362ZM24.7658 19.8593L24.9971 20.0901L24.7658 19.8593ZM43.5063 19.8593L43.7377 20.0901L43.5063 19.8593ZM56.2314 19.8593L56.4628 20.0901L56.2314 19.8593ZM60.6273 19.8593C61.0366 20.0391 61.3298 20.0698 61.7841 20.0901C61.3749 19.9103 61.0817 19.8795 60.6273 19.8593ZM156.412 19.8593L156.644 20.0901L156.412 19.8593ZM13.4289 20.0901L13.6602 20.3209L13.4289 20.0901ZM24.9971 20.0901L25.2285 20.3209L24.9971 20.0901ZM35.4085 20.0901L35.6399 20.3209L35.4085 20.0901ZM55.0746 20.0901C55.3633 20.2481 55.4327 20.2629 55.7687 20.3209C55.4799 20.1628 55.4105 20.148 55.0746 20.0901ZM61.9385 20.167C61.8355 20.2696 62.0798 20.2568 62.0926 20.2439C62.1955 20.1413 61.9512 20.1542 61.9385 20.167ZM156.181 20.0901L156.412 20.3209L156.181 20.0901ZM2.55473 20.3209L2.78609 20.5517L2.55473 20.3209ZM12.9662 20.3209L13.1975 20.5517L12.9662 20.3209ZM25.4599 20.3209L25.6912 20.5517L25.4599 20.3209ZM43.275 20.3209L43.5063 20.5517L43.275 20.3209ZM54.7662 20.3978C54.6632 20.5004 54.9075 20.4876 54.9202 20.4748C55.0232 20.3722 54.7789 20.385 54.7662 20.3978ZM62.4782 20.3209L62.7096 20.5517L62.4782 20.3209ZM155.95 20.3209L156.181 20.5517L155.95 20.3209ZM12.7348 20.5517L12.9662 20.7825L12.7348 20.5517ZM25.6912 20.5517L25.9226 20.7825L25.6912 20.5517ZM54.1491 20.5517L54.3805 20.7825L54.1491 20.5517ZM63.0953 20.6286C62.9923 20.7312 63.2367 20.7184 63.2494 20.7056C63.3523 20.6029 63.108 20.6158 63.0953 20.6286ZM155.718 20.5517L155.95 20.7825L155.718 20.5517ZM2.32336 20.7825L2.55473 21.0133L2.32336 20.7825ZM12.5034 20.7825L12.7348 21.0133L12.5034 20.7825ZM35.8713 20.7825L36.1026 21.0133L35.8713 20.7825ZM43.0436 20.7825L43.275 21.0133L43.0436 20.7825ZM53.6864 20.7825L53.9177 21.0133L53.6864 20.7825ZM63.558 20.8594C63.4551 20.962 63.6994 20.9492 63.7121 20.9364C63.8151 20.8337 63.5707 20.8466 63.558 20.8594Z" fill="white"/>
<path d="M36.8736 23.0138C36.8609 23.0266 36.8479 23.2703 36.9509 23.1677C36.9636 23.1549 36.9766 22.9112 36.8736 23.0138ZM41.8866 23.0908V23.7832C42.0476 23.4245 42.0476 23.4494 41.8866 23.0908ZM1.01209 25.0911C0.999251 25.1038 0.986388 25.3476 1.08923 25.2448C1.10209 25.2322 1.11493 24.9884 1.01209 25.0911ZM27.3106 25.6296C27.9792 25.9096 28.6696 25.8599 29.3929 25.8604C28.7242 25.5804 28.0338 25.6301 27.3106 25.6296ZM0.703613 26.322V27.0144C0.864666 26.6558 0.864666 26.6807 0.703613 26.322ZM8.8785 26.476C8.86564 26.4887 8.8528 26.7324 8.95564 26.6297C8.96848 26.617 8.98134 26.3732 8.8785 26.476ZM37.7991 26.7068C37.7863 26.7195 37.7734 26.9632 37.8763 26.8605C37.8891 26.8478 37.902 26.6041 37.7991 26.7068ZM41.1925 26.5528V27.2452C41.3535 26.8866 41.3535 26.9115 41.1925 26.5528ZM49.3673 26.9376C49.3546 26.9503 49.3416 27.194 49.4446 27.0913C49.4573 27.0786 49.4703 26.8349 49.3673 26.9376ZM8.57002 27.9376V29.7841C8.83873 29.1447 8.83873 28.577 8.57002 27.9376ZM49.0589 27.9376V29.7841C49.3275 29.1447 49.3275 28.577 49.0589 27.9376ZM37.9534 28.1684V29.5533C38.1734 29.0259 38.1734 28.6958 37.9534 28.1684ZM10.4209 29.5533V32.3229H17.5933C15.7128 31.5356 12.6915 32.0921 10.6523 32.0921C10.6523 31.2381 10.7542 30.3454 10.4209 29.5533ZM104.586 30.0149V33.0153C104.955 32.1403 104.955 30.8899 104.586 30.0149ZM41.2695 30.6304C41.2568 30.6431 41.2439 30.8868 41.3468 30.7841C41.3595 30.7714 41.3725 30.5277 41.2695 30.6304ZM68.2622 31.6305V32.3229C68.4232 31.9642 68.4232 31.9892 68.2622 31.6305ZM76.437 31.7844C76.4243 31.7971 76.4113 32.0409 76.5143 31.9382C76.527 31.9255 76.54 31.6817 76.437 31.7844ZM30.7811 32.0921C31.6369 32.4503 32.6359 32.3229 33.5574 32.3229H38.1847C37.3289 31.9647 36.3299 32.0921 35.4084 32.0921H30.7811ZM113.378 32.0921V33.2461C113.57 32.7776 113.57 32.5606 113.378 32.0921ZM89.6248 33.1693C89.6121 33.182 89.5991 33.4257 89.7021 33.323C89.7148 33.3103 89.7278 33.0666 89.6248 33.1693ZM104.355 33.0153V33.7077C104.516 33.3491 104.516 33.374 104.355 33.0153ZM89.8562 33.6309C89.8435 33.6436 89.8305 33.8873 89.9334 33.7846C89.9462 33.7719 89.9591 33.5282 89.8562 33.6309ZM80.9873 33.7077V34.8618C81.1793 34.393 81.1793 34.1765 80.9873 33.7077ZM104.201 33.8617C104.188 33.8744 104.175 34.1181 104.278 34.0154C104.291 34.0027 104.304 33.759 104.201 33.8617ZM113.147 33.9385V34.8618C113.311 34.4558 113.311 34.3445 113.147 33.9385ZM103.969 34.3233C103.957 34.336 103.944 34.5797 104.047 34.477C104.059 34.4643 104.072 34.2206 103.969 34.3233ZM81.2186 34.8618V35.785C81.3829 35.379 81.3829 35.2677 81.2186 34.8618ZM112.993 35.2465C112.98 35.2592 112.967 35.5029 113.07 35.4002C113.083 35.3875 113.096 35.1438 112.993 35.2465ZM75.2031 35.5542V36.2466C75.3642 35.8879 75.3642 35.9128 75.2031 35.5542ZM27.2335 35.8618C27.1306 35.9645 27.3749 35.9516 27.3876 35.9389C27.4906 35.8362 27.2463 35.8491 27.2335 35.8618ZM81.45 35.785V36.7082C81.6143 36.3022 81.6143 36.191 81.45 35.785ZM112.761 35.9389C112.749 35.9516 112.736 36.1953 112.839 36.0926C112.851 36.0799 112.864 35.8362 112.761 35.9389ZM92.4785 36.5542C92.3755 36.6569 92.6198 36.644 92.6326 36.6313C92.7355 36.5286 92.4912 36.5415 92.4785 36.5542ZM93.8667 37.2467C93.7637 37.3494 94.008 37.3364 94.0208 37.3237C94.1237 37.221 93.8794 37.234 93.8667 37.2467ZM100.345 37.2467C100.242 37.3494 100.486 37.3364 100.499 37.3237C100.602 37.221 100.358 37.234 100.345 37.2467ZM54.3032 37.4775C54.2003 37.5802 54.4446 37.5672 54.4573 37.5545C54.5603 37.4518 54.316 37.4648 54.3032 37.4775ZM94.1751 37.4006C94.5235 37.5582 94.7107 37.5912 95.1005 37.6314C94.7521 37.4738 94.5649 37.4408 94.1751 37.4006ZM99.4965 37.4006C99.7852 37.5587 99.8546 37.5735 100.191 37.6314C99.9018 37.4733 99.8322 37.4585 99.4965 37.4006ZM14.0457 37.7083C13.9428 37.811 14.1871 37.798 14.1999 37.7854C14.3027 37.6826 14.0585 37.6956 14.0457 37.7083ZM24.2258 37.7083C24.1228 37.811 24.3672 37.798 24.3799 37.7854C24.4828 37.6826 24.2385 37.6956 24.2258 37.7083ZM54.766 37.7083C54.663 37.811 54.9073 37.798 54.9201 37.7854C55.023 37.6826 54.7787 37.6956 54.766 37.7083ZM95.3319 37.6314C96.1324 38.0152 96.9942 38.0748 97.8769 38.093C97.0761 37.7092 96.2145 37.6496 95.3319 37.6314ZM98.571 37.6314C98.9194 37.789 99.1066 37.822 99.4965 37.8622C99.148 37.7046 98.9608 37.6716 98.571 37.6314ZM111.836 37.7854C111.823 37.798 111.81 38.0418 111.913 37.9391C111.926 37.9264 111.939 37.6826 111.836 37.7854ZM14.5084 37.9391C14.4056 38.0418 14.6498 38.0289 14.6626 38.0162C14.7655 37.9134 14.5212 37.9264 14.5084 37.9391ZM55.2287 37.9391C55.1258 38.0418 55.3701 38.0289 55.3828 38.0162C55.4857 37.9134 55.2414 37.9264 55.2287 37.9391ZM62.6324 37.9391C62.5294 38.0418 62.7737 38.0289 62.7865 38.0162C62.8894 37.9134 62.6451 37.9264 62.6324 37.9391ZM14.9711 38.1699C14.8683 38.2726 15.1125 38.2597 15.1254 38.247C15.2282 38.1443 14.984 38.1572 14.9711 38.1699ZM23.069 38.1699C22.966 38.2726 23.2103 38.2597 23.2231 38.247C23.326 38.1443 23.0817 38.1572 23.069 38.1699ZM55.5371 38.093C55.8259 38.2511 55.8953 38.2659 56.2312 38.3238C55.9425 38.1657 55.8731 38.1509 55.5371 38.093ZM61.784 38.093C62.0727 38.2511 62.1421 38.2659 62.4781 38.3238C62.1893 38.1657 62.1199 38.1509 61.784 38.093ZM15.6652 38.4007C15.5624 38.5034 15.8066 38.4905 15.8195 38.4778C15.9223 38.3751 15.6781 38.388 15.6652 38.4007ZM22.2206 38.3238C22.5093 38.4819 22.5787 38.4967 22.9147 38.5546C22.6259 38.3965 22.5565 38.3817 22.2206 38.3238ZM56.4626 38.3238C56.7513 38.4819 56.8207 38.4967 57.1567 38.5546C56.8679 38.3965 56.7985 38.3817 56.4626 38.3238ZM60.6271 38.3238C61.0364 38.5036 61.3296 38.5343 61.784 38.5546C61.3747 38.3748 61.0815 38.3441 60.6271 38.3238ZM15.9737 38.5546C16.3221 38.7123 16.5093 38.7453 16.8992 38.7854C16.5507 38.6278 16.3636 38.5948 15.9737 38.5546ZM21.5265 38.5546C21.8152 38.7127 21.8846 38.7275 22.2206 38.7854C21.9318 38.6273 21.8624 38.6126 21.5265 38.5546ZM57.388 38.5546C58.2434 38.9128 59.2429 38.7854 60.1644 38.7854C59.3091 38.4272 58.3096 38.5546 57.388 38.5546ZM17.1305 38.7854C17.4194 38.9435 17.4888 38.9583 17.8246 39.0162C17.5358 38.8581 17.4664 38.8434 17.1305 38.7854ZM20.1383 38.7854C20.5476 38.9652 20.8407 38.9959 21.2951 39.0162C20.8858 38.8364 20.5927 38.8057 20.1383 38.7854ZM82.9152 39.1702C82.9025 39.1829 82.8895 39.4266 82.9925 39.3239C83.0052 39.3112 83.0182 39.0675 82.9152 39.1702Z" fill="white"/>
<path d="M111.065 39.0154L111.297 39.2471L111.065 39.0154Z" fill="#FEFEFD"/>
<path d="M128.417 39.0154L128.648 39.2462L128.417 39.0154ZM139.985 39.0154L140.217 39.2462L139.985 39.0154ZM148.777 39.0154L149.008 39.2462L148.777 39.0154ZM156.875 39.0154L157.106 39.2462L156.875 39.0154ZM3.94263 39.2462L4.17399 39.477L3.94263 39.2462ZM30.5496 39.2462L30.781 39.477L30.5496 39.2462ZM44.4315 39.2462L44.6629 39.477L44.4315 39.2462ZM73.1208 39.2462L73.3521 39.477L73.1208 39.2462ZM128.186 39.2462L128.417 39.477L128.186 39.2462ZM140.217 39.2462L140.448 39.477L140.217 39.2462ZM149.008 39.2462L149.24 39.477L149.008 39.2462ZM157.106 39.2462L157.338 39.477L157.106 39.2462ZM30.781 39.477L31.0123 39.7078L30.781 39.477ZM44.6629 39.477L44.8942 39.7078L44.6629 39.477ZM83.0694 39.477L83.3008 39.7078L83.0694 39.477ZM127.954 39.477L128.186 39.7078L127.954 39.477ZM140.448 39.477L140.679 39.7078L140.448 39.477ZM149.24 39.477L149.471 39.7078L149.24 39.477ZM157.338 39.477L157.569 39.7078L157.338 39.477ZM31.0123 39.7078L31.2437 39.9386L31.0123 39.7078ZM44.8942 39.7078L45.1256 39.9386L44.8942 39.7078ZM83.3779 39.8617C83.3651 39.8744 83.3522 40.1182 83.4551 40.0155C83.4679 40.0028 83.4808 39.759 83.3779 39.8617ZM127.723 39.7078L127.954 39.9386L127.723 39.7078ZM140.679 39.7078L140.911 39.9386L140.679 39.7078ZM149.471 39.7078L149.703 39.9386L149.471 39.7078ZM157.569 39.7078L157.8 39.9386L157.569 39.7078ZM4.40536 39.9386L4.63672 40.1694L4.40536 39.9386ZM72.658 39.9386L72.8894 40.1694L72.658 39.9386ZM127.492 39.9386L127.723 40.1694L127.492 39.9386ZM140.911 39.9386L141.142 40.1694L140.911 39.9386ZM149.703 39.9386L149.934 40.1694L149.703 39.9386ZM157.8 39.9386L158.032 40.1694L157.8 39.9386ZM4.63672 40.1694L4.86809 40.4002L4.63672 40.1694ZM72.4267 40.1694L72.658 40.4002L72.4267 40.1694ZM83.5322 40.1694L83.7635 40.4002L83.5322 40.1694ZM127.26 40.1694L127.492 40.4002L127.26 40.1694ZM141.142 40.1694L141.373 40.4002L141.142 40.1694ZM149.934 40.1694L150.165 40.4002L149.934 40.1694ZM158.032 40.1694L158.263 40.4002L158.032 40.1694ZM4.86809 40.4002L5.09945 40.631L4.86809 40.4002ZM45.357 40.4002L45.5883 40.631L45.357 40.4002ZM72.1953 40.4002L72.4267 40.631L72.1953 40.4002ZM83.7635 40.4002L83.9949 40.631L83.7635 40.4002ZM127.029 40.4002L127.26 40.631L127.029 40.4002ZM141.373 40.4002L141.605 40.631L141.373 40.4002ZM150.165 40.4002L150.397 40.631L150.165 40.4002ZM158.263 40.4002L158.494 40.631L158.263 40.4002ZM5.09945 40.631L5.33082 40.8618L5.09945 40.631ZM45.5883 40.631L45.8197 40.8618L45.5883 40.631ZM71.9639 40.631L72.1953 40.8618L71.9639 40.631ZM83.9949 40.631L84.2263 40.8618L83.9949 40.631ZM126.797 40.631L127.029 40.8618L126.797 40.631ZM141.605 40.631L141.836 40.8618L141.605 40.631ZM150.397 40.631L150.628 40.8618L150.397 40.631ZM158.494 40.631L158.726 40.8618L158.494 40.631ZM31.9378 40.8618L32.1692 41.0926L31.9378 40.8618ZM45.8197 40.8618L46.0511 41.0926L45.8197 40.8618ZM71.7326 40.8618L71.9639 41.0926L71.7326 40.8618Z" fill="white"/>
<path d="M109.445 40.8628L108.751 41.786C109.157 41.4682 109.339 41.3489 109.445 40.8628Z" fill="#FEFEFD"/>
</svg>
