<svg width="154" height="41" viewBox="0 0 154 41" fill="none" xmlns="http://www.w3.org/2000/svg">
<path d="M90.3405 5.25293L79.774 15.7939L76.7549 18.8056C76.1734 19.3857 75.4706 19.9371 75.1196 20.6879C78.94 17.1644 82.5093 13.3162 86.1894 9.64499L89.0826 6.75878C89.5117 6.33076 90.195 5.85175 90.3405 5.25293Z" fill="#F38A04"/>
<path d="M82.0382 28.0919C80.7626 28.0919 79.1129 28.5562 77.8871 28.1146C77.1245 27.8401 76.5562 27.1407 76.0002 26.5861L72.7296 23.3234C71.1294 24.4479 69.9029 26.1341 68.4526 27.4431C67.6327 28.1833 66.8493 28.947 66.0626 29.7228C65.6541 30.1256 65.1911 30.4646 64.9304 30.9781H67.8236C68.3234 30.9781 68.8909 31.0554 69.3332 30.777C70.188 30.2386 70.869 29.2931 71.5974 28.5988C71.8732 28.336 72.306 27.8245 72.7296 27.843C73.1301 27.8605 73.4774 28.3371 73.7359 28.5939C74.4386 29.292 75.3852 30.69 76.3775 30.9382C77.6194 31.2488 79.2486 30.9781 80.5287 30.9781H89.46C89.0954 30.0799 88.1251 29.3945 87.4473 28.7194C85.816 27.0947 84.1027 25.5298 82.4156 23.9621C81.784 23.3751 81.1505 22.7973 80.5288 22.1989C80.3182 21.9962 79.9005 21.7331 79.8532 21.4197C79.7898 20.999 80.4224 20.4658 80.6759 20.1862C81.571 19.1987 82.5472 18.288 83.4433 17.3C86.0455 14.431 88.8398 11.7239 91.4839 8.89232C92.5977 7.69949 93.9273 6.58694 94.8691 5.25318H91.9758C91.5398 5.25318 91.0082 5.17584 90.5921 5.3289C90.0881 5.5143 89.7034 6.01439 89.3342 6.38257L87.3215 8.39037L79.7739 15.9196L76.3775 19.3078C76.0514 19.6334 75.2989 20.1609 75.3613 20.6882C75.4489 21.4287 76.7557 22.3195 77.2581 22.8214C78.3909 23.9532 79.4746 25.1494 80.5501 26.3351C81.0745 26.9133 81.6437 27.4111 82.0382 28.0919Z" fill="#040404"/>
<path d="M145.186 5.50405V20.1861C145.186 22.6292 144.941 25.3914 146.508 27.4639C148.229 29.7368 150.857 30.2324 153.489 30.7271V26.4605C152.281 26.1818 150.914 25.7695 150.174 24.7035C149.691 24.0069 149.671 23.0084 149.555 22.1939C149.222 19.8587 149.589 17.3963 149.589 15.0411H152.608V10.5236H149.589V5.50405C148.141 5.23597 146.639 5.38963 145.186 5.50405ZM94.6176 5.50405L94.7434 5.62954L94.6176 5.50405ZM94.4918 5.62954L94.6176 5.75502L94.4918 5.62954ZM36.8788 5.75502V22.0684C37.3074 21.0497 37.0046 19.4077 37.0046 18.3038V9.89611V7.26087C37.0046 6.76108 37.074 6.21916 36.8788 5.75502Z" fill="#F38A04"/>
<path d="M37.0045 5.75513V16.9235C37.0045 18.7524 37.327 20.9325 36.7813 22.6959C35.892 25.5697 32.0895 27.0446 29.4569 25.6667C26.3423 24.0364 25.2166 19.7218 27.9479 17.1862C28.3886 16.7771 28.9007 16.4462 29.4569 16.2144C30.9306 15.6003 32.5589 15.6689 33.9855 16.3575C34.6758 16.6907 35.2611 17.1927 35.9981 17.4255V14.0373C35.9981 13.6294 36.121 12.9644 35.8688 12.6129C35.6369 12.2894 35.0971 12.1868 34.7402 12.0727C33.4924 11.6738 32.2635 11.6469 30.9664 11.6531C25.1766 11.681 21.357 17.1486 22.1982 22.5705C22.3486 23.5396 22.6939 24.4611 23.1366 25.3312C26.3565 31.6609 35.5502 31.8464 39.6265 26.3351C41.4481 23.8723 41.2814 21.0812 41.2814 18.1784V5.75513H37.0045Z" fill="#040404"/>
<path d="M41.2814 5.75513V21.4411C41.4767 20.9769 41.4072 20.435 41.4072 19.9352V17.4255V9.39427C41.4072 8.32337 41.6973 6.74384 41.2814 5.75513ZM94.3659 5.75513L94.4917 5.88061L94.3659 5.75513ZM94.2401 5.88061L94.3659 6.0061L94.2401 5.88061ZM94.1143 6.0061L94.2401 6.13159L94.1143 6.0061ZM93.9885 6.13159L94.1143 6.25708L93.9885 6.13159ZM93.8627 6.25708L93.9885 6.38256L93.8627 6.25708ZM93.7369 6.38256L93.8627 6.50805L93.7369 6.38256ZM93.6111 6.50805L93.7369 6.63354L93.6111 6.50805ZM93.4854 6.63354L93.6111 6.75903L93.4854 6.63354ZM93.3596 6.75903L93.4854 6.88452L93.3596 6.75903ZM93.2338 6.88452L93.3596 7.01L93.2338 6.88452ZM92.479 7.76293L92.6048 7.88842L92.479 7.76293ZM92.3532 7.88842L92.479 8.0139L92.3532 7.88842ZM92.2274 8.0139L92.3532 8.13939L92.2274 8.0139ZM92.1016 8.13939L92.2274 8.26488L92.1016 8.13939ZM91.9758 8.26488L92.1016 8.39037L91.9758 8.26488ZM91.85 8.39037L91.9758 8.51585L91.85 8.39037ZM91.7243 8.51585L91.85 8.64134L91.7243 8.51585ZM91.5985 8.64134L91.7243 8.76683L91.5985 8.64134ZM91.4727 8.76683L91.5985 8.89232L91.4727 8.76683ZM91.3469 8.89232L91.4727 9.0178L91.3469 8.89232ZM91.2211 9.0178L91.3469 9.14329L91.2211 9.0178ZM91.0953 9.14329L91.2211 9.26878L91.0953 9.14329ZM56.125 10.1472C56.3579 10.9926 56.5028 11.6464 56.5023 12.5315C56.6404 12.2036 56.6272 11.8834 56.6281 11.5276C57.8404 12.3795 58.851 13.6196 59.8987 14.6647C60.3711 15.1359 61.095 15.6541 61.3324 16.2961C61.5349 16.8443 61.4082 17.6017 61.4082 18.1784V22.194C61.6441 21.6332 61.534 20.9152 61.534 20.3117V16.4216C62.4224 17.0458 63.1569 17.915 63.9241 18.6803C64.6071 19.3617 65.4038 20.0524 65.811 20.9391C65.058 21.2894 64.5063 21.9906 63.9241 22.5705C63.2326 23.2591 62.4635 23.8655 61.7969 24.5783C61.2787 25.1323 60.778 25.9844 60.0245 26.2096C59.2822 27.1815 58.2438 27.886 57.5087 28.8448C57.6868 28.7856 57.7369 28.7427 57.886 28.5939C56.2077 30.2679 54.4089 31.8116 52.7286 33.4879C52.0015 34.2132 51.1831 34.9069 50.5901 35.7467H53.4833C53.9193 35.7467 54.4509 35.824 54.867 35.671C55.3711 35.4855 55.7558 34.9855 56.125 34.6173L58.1376 32.6095L65.4336 25.3312L68.7042 22.0685C69.0334 21.7401 69.8103 21.2028 69.8103 20.6881C69.8103 20.3833 69.5216 20.1379 69.3312 19.9352C68.9042 19.4812 68.5014 19.0046 68.0703 18.5549C66.4147 16.8276 64.5485 15.1198 63.1693 13.1589H66.1884C66.6883 13.1589 67.2556 13.0816 67.6979 13.3601C68.9852 14.1708 70.0907 15.5489 71.2201 16.5684C71.6088 16.9193 72.0757 17.6258 72.6033 17.7586C72.9022 17.8338 73.1158 17.612 73.3052 17.4175C73.7466 16.9642 74.1676 16.4928 74.6165 16.0451C75.8161 14.8483 76.9944 13.6434 78.1498 12.406C78.8011 11.7086 79.543 11.1055 80.0255 10.2727C78.9763 10.2698 77.3186 9.75577 76.3776 10.3484C75.4778 10.9151 74.6181 11.9069 73.8617 12.657C73.5843 12.9322 73.1653 13.5284 72.7296 13.5284C72.2946 13.5284 71.8738 12.9324 71.5974 12.6569C70.8678 11.9298 69.86 10.4447 68.83 10.1871C67.6249 9.8857 66.0467 10.1472 64.8046 10.1472H56.125ZM90.089 10.2727L90.2147 10.3982L90.089 10.2727ZM89.9632 10.3982L90.089 10.5237L89.9632 10.3982ZM89.8374 10.5237L89.9632 10.6491L89.8374 10.5237ZM132.607 30.4762H137.639V21.692C137.639 20.3321 137.362 18.6664 138.015 17.4255C138.977 15.5943 141.131 15.0412 143.048 15.0412V11.904C143.048 11.5714 143.144 11.0214 142.918 10.7423C142.548 10.2852 141.063 10.4978 140.532 10.5349C137.808 10.7253 135.173 12.486 133.796 14.7902C132.575 16.8325 132.607 19.2627 132.607 21.5666V30.4762ZM89.7116 10.6491L89.8374 10.7746L89.7116 10.6491ZM8.57536 10.7746C9.20106 11.0365 10.0393 10.9001 10.7138 10.9001C10.0881 10.6382 9.24986 10.7746 8.57536 10.7746ZM89.5858 10.7746L89.7116 10.9001L89.5858 10.7746ZM5.68213 11.653C6.08654 11.7206 6.4278 11.4968 6.81426 11.3706C7.34386 11.1976 7.89483 11.0708 8.44957 11.0256C7.61735 10.7017 6.45349 11.3374 5.68213 11.653Z" fill="#F38A04"/>
<path d="M15.6198 19.1822H5.3048L5.4306 22.5703L15.3682 22.6958L20.3999 22.5703C20.3999 18.6091 19.1588 14.9832 15.7456 12.6604C11.2391 9.59366 4.81306 10.6006 1.72224 15.1666C0.738156 16.6203 0.209349 18.3224 0.0428753 20.0606C-0.513821 25.8725 4.43307 30.6015 10.0849 30.6015C12.1512 30.6015 14.0273 30.1716 15.7456 28.9846C16.1489 28.706 16.9331 28.3268 17.0908 27.8295C17.1956 27.4986 16.9267 27.1942 16.728 26.9624C16.2481 26.4022 15.7091 25.8745 15.2066 25.3336C14.9837 25.0937 14.7221 24.802 14.3619 24.8316C13.9622 24.8645 13.5656 25.2345 13.2297 25.4275C12.5717 25.8055 11.843 26.1414 11.0913 26.2766C7.81039 26.8668 4.32628 24.2391 4.32098 20.8135C4.31278 15.5063 11.5722 13.1528 14.6854 17.4258C15.0827 17.9711 15.4319 18.5326 15.6198 19.1822Z" fill="#040404"/>
<path d="M11.0913 10.8999C11.3138 10.9977 11.4732 11.0144 11.7203 11.0254C11.4977 10.9277 11.3384 10.9109 11.0913 10.8999ZM89.4601 10.8999L89.5859 11.0254L89.4601 10.8999ZM127.575 27.8408C127.165 26.9625 126.247 26.1446 125.561 25.4571C125.324 25.2196 125.038 24.876 124.682 24.8318C124.325 24.7874 123.966 25.0878 123.676 25.2538C123.138 25.5612 122.505 25.9029 121.903 26.0621C118.827 26.8766 115.744 25.2808 114.788 22.1938C113.981 19.5876 115.588 16.5795 118.141 15.6257C121.233 14.4703 124.798 15.976 125.814 19.1821H115.625C115.607 20.0294 115.137 21.5261 115.762 22.2454C116.262 22.8208 117.594 22.5357 118.267 22.5816C120.847 22.7578 123.615 22.9094 126.192 22.6061C127.222 22.485 128.3 22.5708 129.336 22.5703C129.665 22.5702 130.213 22.663 130.446 22.3691C130.799 21.9235 130.57 20.9475 130.504 20.437C130.248 18.4746 129.673 16.6515 128.486 15.041C125.225 10.6174 118.154 9.30657 113.864 13.0532C112.351 14.3753 111.165 15.9771 110.598 17.9272C109.243 22.5915 111.524 27.9311 116.128 29.7917C118.531 30.7629 121.6 31.0304 124.053 30.0427C125.368 29.5136 126.436 28.6571 127.575 27.8408ZM11.8461 11.0254C12.0355 11.1111 12.1373 11.1291 12.3492 11.1509C12.1598 11.0652 12.058 11.0473 11.8461 11.0254ZM43.5458 11.0254V23.0722C43.911 22.204 43.6716 20.8737 43.6716 19.935V13.7862C43.6716 12.9472 43.8727 11.8027 43.5458 11.0254Z" fill="#F38A04"/>
<path d="M43.6715 11.0256V19.0568C43.6715 20.4529 43.5275 21.9384 43.7079 23.3234C44.4571 29.0748 51.4683 32.4021 56.5024 29.47C58.3622 28.3868 60.3794 26.5636 61.026 24.4528C61.5083 22.8779 61.4083 21.1837 61.4083 19.5588C61.4083 18.5796 61.7235 16.932 61.279 16.0451C60.941 15.3708 60.1751 14.815 59.6472 14.2883C58.7448 13.388 57.793 12.0695 56.6282 11.5276C56.6282 14.6201 56.9442 17.7252 56.6496 20.8137C56.5599 21.7532 56.7694 22.6957 56.329 23.5744C54.8076 26.6097 50.0135 26.3661 48.5213 23.4489C47.9341 22.3009 48.2001 20.6818 48.2001 19.4333V11.0256H43.6715Z" fill="#040404"/>
<path d="M48.2 11.0256V22.696C48.5525 21.858 48.3258 20.5898 48.3258 19.6843V13.7864C48.3258 12.9474 48.5269 11.8029 48.2 11.0256ZM89.3342 11.0256L89.46 11.1511L89.3342 11.0256ZM12.4749 11.1511L12.6007 11.2766L12.4749 11.1511ZM89.2084 11.1511L89.3342 11.2766L89.2084 11.1511ZM12.9781 11.2766C13.1351 11.3625 13.1728 11.3706 13.3554 11.4021C13.1985 11.3162 13.1606 11.3081 12.9781 11.2766ZM89.0826 11.2766L89.2084 11.4021L89.0826 11.2766ZM89.2084 30.6017C89.5273 31.1978 89.46 31.8214 89.46 32.484V35.7467H93.7369C93.7369 32.0584 93.6111 28.3893 93.6111 24.7038C93.6111 22.8631 93.3747 20.6939 94.0016 18.9314C95.1614 15.6705 99.4948 14.5612 102.165 16.6135C104.434 18.3576 104.851 21.868 103.004 24.0758C102.301 24.9167 101.317 25.3995 100.278 25.7023C98.0905 26.3396 96.5523 24.9381 94.6174 24.3273L94.7432 29.3468C97.1031 29.6638 99.1316 30.5358 101.536 29.7646C103.056 29.2769 104.508 28.5448 105.687 27.4532C109.735 23.7049 109.201 16.5793 104.932 13.2239C101.789 10.753 97.1021 10.6893 93.7369 12.7341C92.3664 13.5669 91.3028 14.6779 90.475 16.0451C89.4589 17.723 89.46 19.5525 89.46 21.4411V26.7116C89.46 27.8643 89.7813 29.574 89.2084 30.6017ZM88.9568 11.4021L89.0826 11.5276L88.9568 11.4021ZM13.607 11.5276L13.7328 11.6531L13.607 11.5276ZM30.3374 11.5276C31.0254 11.8156 31.9852 11.6531 32.7275 11.6531C32.0395 11.3651 31.0797 11.5276 30.3374 11.5276ZM88.831 11.5276L88.9568 11.6531L88.831 11.5276ZM29.4569 11.6531C29.6794 11.7508 29.8388 11.7676 30.0859 11.7786C29.8633 11.6808 29.7039 11.6641 29.4569 11.6531ZM33.1049 11.6531C33.2943 11.7388 33.3961 11.7567 33.608 11.7786C33.4186 11.6928 33.3168 11.6749 33.1049 11.6531ZM88.7052 11.6531L88.831 11.7786L88.7052 11.6531ZM5.43051 11.7786L5.5563 11.904L5.43051 11.7786ZM14.236 11.7786L14.3618 11.904L14.236 11.7786ZM29.0795 11.7786C29.2365 11.8645 29.2744 11.8725 29.4569 11.904C29.2999 11.8181 29.2622 11.8101 29.0795 11.7786ZM33.8596 11.7786C34.0166 11.8645 34.0545 11.8725 34.237 11.904C34.08 11.8181 34.0423 11.8101 33.8596 11.7786ZM88.5794 11.7786L88.7052 11.904L88.5794 11.7786ZM5.17893 11.904L5.30472 12.0295L5.17893 11.904ZM14.4876 11.904L14.6134 12.0295L14.4876 11.904ZM28.4506 11.904C28.64 11.9898 28.7418 12.0077 28.9537 12.0295C28.7643 11.9438 28.6625 11.9259 28.4506 11.904ZM34.3628 11.904C34.5198 11.99 34.5575 11.998 34.7402 12.0295C34.5832 11.9436 34.5455 11.9356 34.3628 11.904ZM88.4536 11.904L88.5794 12.0295L88.4536 11.904ZM5.01121 12.0714C4.95529 12.1271 5.08808 12.1202 5.09506 12.1132C5.15097 12.0574 5.01819 12.0644 5.01121 12.0714ZM14.7392 12.0295L14.865 12.155L14.7392 12.0295ZM28.0732 12.0295C28.2302 12.1155 28.2679 12.1235 28.4506 12.155C28.2936 12.0691 28.2558 12.0611 28.0732 12.0295ZM34.7402 12.0295L34.866 12.155L34.7402 12.0295ZM4.80155 12.155L4.92734 12.2805L4.80155 12.155ZM14.9907 12.155L15.1165 12.2805L14.9907 12.155ZM27.9055 12.1968C27.8495 12.2526 27.9824 12.2456 27.9893 12.2387C28.0452 12.1829 27.9124 12.1899 27.9055 12.1968ZM35.1176 12.155L35.2434 12.2805L35.1176 12.155ZM4.54996 12.2805L4.67575 12.406L4.54996 12.2805ZM15.2423 12.2805L15.3681 12.406L15.2423 12.2805ZM27.6539 12.3223C27.5979 12.3781 27.7308 12.3711 27.7377 12.3642C27.7937 12.3084 27.6608 12.3154 27.6539 12.3223ZM35.4949 12.2805L35.6207 12.406L35.4949 12.2805ZM4.38224 12.4478C4.32633 12.5036 4.45912 12.4966 4.4661 12.4897C4.52201 12.4339 4.38922 12.4409 4.38224 12.4478ZM15.3681 12.406L15.4939 12.5315L15.3681 12.406ZM27.4023 12.4478C27.3463 12.5036 27.4792 12.4966 27.4861 12.4897C27.5421 12.4339 27.4092 12.4408 27.4023 12.4478ZM35.8304 12.4478C35.7744 12.5036 35.9073 12.4966 35.9142 12.4897C35.9702 12.4339 35.8373 12.4409 35.8304 12.4478ZM4.17258 12.5315L4.29838 12.657L4.17258 12.5315ZM15.6197 12.5315L15.7455 12.657L15.6197 12.5315ZM27.0668 12.5315L27.1926 12.657L27.0668 12.5315ZM35.9981 12.5315V15.7942C35.9981 16.3569 36.0982 16.9623 35.7465 17.4255C36.2616 17.6192 36.1239 16.7481 36.1239 16.4216V13.9118C36.1239 13.4547 36.1976 12.9437 35.9981 12.5315ZM4.04679 12.657L4.17258 12.7825L4.04679 12.657ZM15.7455 12.657L15.8713 12.7825L15.7455 12.657ZM26.8152 12.657L26.941 12.7825L26.8152 12.657ZM3.79521 12.7825L3.921 12.9079L3.79521 12.7825ZM15.9971 12.7825L16.1229 12.9079L15.9971 12.7825ZM26.5637 12.7825L26.6895 12.9079L26.5637 12.7825ZM87.6989 12.7825L87.8246 12.9079L87.6989 12.7825ZM3.66941 12.9079L3.79521 13.0334L3.66941 12.9079ZM16.1229 12.9079L16.2487 13.0334L16.1229 12.9079ZM26.396 12.9498C26.34 13.0056 26.4728 12.9986 26.4798 12.9916C26.5357 12.9358 26.4029 12.9428 26.396 12.9498ZM87.5731 12.9079L87.6989 13.0334L87.5731 12.9079ZM3.54362 13.0334L3.66941 13.1589L3.54362 13.0334ZM16.2487 13.0334L16.3745 13.1589L16.2487 13.0334ZM26.1863 13.0334L26.3121 13.1589L26.1863 13.0334ZM87.4473 13.0334L87.5731 13.1589L87.4473 13.0334ZM3.41783 13.1589L3.54362 13.2844L3.41783 13.1589ZM25.9347 13.1589L26.0605 13.2844L25.9347 13.1589ZM87.3215 13.1589L87.4473 13.2844L87.3215 13.1589ZM3.29204 13.2844L3.41783 13.4099L3.29204 13.2844ZM16.626 13.2844L16.7518 13.4099L16.626 13.2844ZM25.8089 13.2844L25.9347 13.4099L25.8089 13.2844ZM87.1957 13.2844L87.3215 13.4099L87.1957 13.2844ZM16.7518 13.4099L16.8776 13.5354L16.7518 13.4099ZM25.6831 13.4099L25.8089 13.5354L25.6831 13.4099ZM87.0699 13.4099L87.1957 13.5354L87.0699 13.4099ZM16.8776 13.5354L17.0034 13.6609L16.8776 13.5354ZM25.4315 13.5354L25.5573 13.6609L25.4315 13.5354ZM86.9441 13.5354L87.0699 13.6609L86.9441 13.5354ZM17.0034 13.6609L17.1292 13.7864L17.0034 13.6609ZM25.3057 13.6609L25.4315 13.7864L25.3057 13.6609ZM86.8183 13.6609L86.9441 13.7864L86.8183 13.6609ZM17.1292 13.7864L17.255 13.9118L17.1292 13.7864ZM25.1799 13.7864L25.3057 13.9118L25.1799 13.7864ZM86.6925 13.7864L86.8183 13.9118L86.6925 13.7864ZM2.66307 13.9118L2.78887 14.0373L2.66307 13.9118ZM17.255 13.9118L17.3808 14.0373L17.255 13.9118ZM86.5667 13.9118L86.6925 14.0373L86.5667 13.9118ZM2.53728 14.0373L2.66307 14.1628L2.53728 14.0373ZM17.3808 14.0373L17.5066 14.1628L17.3808 14.0373ZM24.8026 14.0373L24.9284 14.1628L24.8026 14.0373ZM86.4409 14.0373L86.5667 14.1628L86.4409 14.0373ZM2.41149 14.1628L2.53728 14.2883L2.41149 14.1628ZM17.5066 14.1628L17.6324 14.2883L17.5066 14.1628ZM24.6768 14.1628L24.8026 14.2883L24.6768 14.1628ZM86.3151 14.1628L86.4409 14.2883L86.3151 14.1628ZM2.2857 14.2883L2.41149 14.4138L2.2857 14.2883ZM17.6324 14.2883L17.7582 14.4138L17.6324 14.2883ZM24.551 14.2883L24.6768 14.4138L24.551 14.2883ZM56.6281 14.2883V20.5627C56.8506 20.0338 56.7539 19.375 56.7539 18.8059V15.9197C56.7539 15.385 56.837 14.7851 56.6281 14.2883ZM86.1893 14.2883L86.3151 14.4138L86.1893 14.2883ZM2.1599 14.4138L2.2857 14.5393L2.1599 14.4138ZM24.4252 14.4138L24.551 14.5393L24.4252 14.4138ZM86.0636 14.4138L86.1893 14.5393L86.0636 14.4138ZM85.9378 14.5393L86.0636 14.6648L85.9378 14.5393ZM1.90832 14.7903L2.03411 14.9157L1.90832 14.7903ZM18.0098 14.7903L18.1356 14.9157L18.0098 14.7903ZM1.78253 14.9157L1.90832 15.0412L1.78253 14.9157ZM18.1356 14.9157L18.2614 15.0412L18.1356 14.9157ZM24.0478 14.9157L24.1736 15.0412L24.0478 14.9157ZM18.2614 15.0412L18.3871 15.1667L18.2614 15.0412ZM23.922 15.0412L24.0478 15.1667L23.922 15.0412ZM9.0785 15.1667C9.33663 15.2764 9.54986 15.2863 9.83325 15.2922C9.57511 15.1825 9.36188 15.1726 9.0785 15.1667ZM10.588 15.1667C10.8461 15.2764 11.0594 15.2863 11.3428 15.2922C11.0846 15.1825 10.8714 15.1726 10.588 15.1667ZM23.7962 15.1667L23.922 15.2922L23.7962 15.1667ZM1.53094 15.2922L1.65673 15.4177L1.53094 15.2922ZM8.57533 15.2922C8.73236 15.3781 8.7701 15.3862 8.9527 15.4177C8.79568 15.3318 8.75791 15.3237 8.57533 15.2922ZM11.3428 15.2922C11.4998 15.3781 11.5375 15.3862 11.7201 15.4177C11.5632 15.3318 11.5253 15.3237 11.3428 15.2922ZM8.07215 15.4177C8.22919 15.5036 8.26693 15.5117 8.44953 15.5432C8.29251 15.4573 8.25474 15.4492 8.07215 15.4177ZM11.8459 15.4177C12.0029 15.5036 12.0407 15.5117 12.2233 15.5432C12.0663 15.4573 12.0286 15.4492 11.8459 15.4177ZM18.5129 15.4177L18.6387 15.5432L18.5129 15.4177ZM85.183 15.4177L85.3088 15.5432L85.183 15.4177ZM1.40515 15.5432L1.53094 15.6687L1.40515 15.5432ZM7.90444 15.585C7.84852 15.6408 7.98131 15.6338 7.98829 15.6269C8.0442 15.5711 7.91142 15.578 7.90444 15.585ZM12.3072 15.585C12.2512 15.6408 12.3841 15.6338 12.391 15.6269C12.447 15.5711 12.3141 15.578 12.3072 15.585ZM23.5446 15.5432L23.6704 15.6687L23.5446 15.5432ZM85.0572 15.5432L85.183 15.6687L85.0572 15.5432ZM1.27936 15.6687L1.40515 15.7942L1.27936 15.6687ZM7.56898 15.6687L7.69478 15.7942L7.56898 15.6687ZM12.6007 15.6687L12.7265 15.7942L12.6007 15.6687ZM23.4188 15.6687L23.5446 15.7942L23.4188 15.6687ZM84.9314 15.6687L85.0572 15.7942L84.9314 15.6687ZM7.3174 15.7942L7.44319 15.9197L7.3174 15.7942ZM12.8523 15.7942L12.9781 15.9197L12.8523 15.7942ZM18.7645 15.7942L18.8903 15.9197L18.7645 15.7942ZM30.589 15.7942C31.1833 16.0429 31.9614 15.9197 32.6017 15.9197C32.0075 15.6709 31.2293 15.7942 30.589 15.7942ZM84.8056 15.7942L84.9314 15.9197L84.8056 15.7942ZM1.15356 15.9197L1.27936 16.0451L1.15356 15.9197ZM7.14968 15.9615C7.09377 16.0173 7.22655 16.0103 7.23353 16.0033C7.28945 15.9475 7.15666 15.9545 7.14968 15.9615ZM13.1039 15.9197L13.2297 16.0451L13.1039 15.9197ZM23.2931 15.9197L23.4188 16.0451L23.2931 15.9197ZM30.2116 15.9197L30.3374 16.0451L30.2116 15.9197ZM32.6017 15.9197C32.8242 16.0174 32.9836 16.0341 33.2307 16.0451C33.0081 15.9474 32.8488 15.9306 32.6017 15.9197ZM84.6798 15.9197L84.8056 16.0451L84.6798 15.9197ZM6.94002 16.0451L7.06581 16.1706L6.94002 16.0451ZM13.2297 16.0451L13.3554 16.1706L13.2297 16.0451ZM18.8903 16.0451L19.0161 16.1706L18.8903 16.0451ZM29.5827 16.0451C29.7397 16.1311 29.7774 16.1391 29.9601 16.1706C29.8031 16.0847 29.7653 16.0767 29.5827 16.0451ZM33.3146 16.087C33.2586 16.1427 33.3914 16.1358 33.3984 16.1288C33.4543 16.073 33.3215 16.08 33.3146 16.087ZM84.554 16.0451L84.6798 16.1706L84.554 16.0451ZM1.02777 16.1706L1.15356 16.2961L1.02777 16.1706ZM6.68844 16.1706L6.81423 16.2961L6.68844 16.1706ZM13.4812 16.1706L13.607 16.2961L13.4812 16.1706ZM23.1673 16.1706L23.2931 16.2961L23.1673 16.1706ZM29.415 16.2124C29.359 16.2682 29.4919 16.2613 29.4988 16.2543C29.5548 16.1985 29.4219 16.2055 29.415 16.2124ZM33.608 16.1706L33.7338 16.2961L33.608 16.1706ZM84.4282 16.1706L84.554 16.2961L84.4282 16.1706ZM6.56264 16.2961L6.68844 16.4216L6.56264 16.2961ZM13.607 16.2961L13.7328 16.4216L13.607 16.2961ZM29.0795 16.2961L29.2053 16.4216L29.0795 16.2961ZM33.9435 16.3379C33.8876 16.3937 34.0204 16.3868 34.0273 16.3798C34.0833 16.324 33.9505 16.331 33.9435 16.3379ZM84.3025 16.2961L84.4282 16.4216L84.3025 16.2961ZM0.901978 16.4216L1.02777 16.5471L0.901978 16.4216ZM6.43685 16.4216L6.56264 16.5471L6.43685 16.4216ZM19.1419 16.4216L19.2677 16.5471L19.1419 16.4216ZM23.0415 16.4216L23.1673 16.5471L23.0415 16.4216ZM28.8279 16.4216L28.9537 16.5471L28.8279 16.4216ZM34.1951 16.4634C34.1391 16.5192 34.272 16.5122 34.2789 16.5053C34.3349 16.4495 34.202 16.4565 34.1951 16.4634Z" fill="#F38A04"/>
<path d="M19.6869 17.6349C19.68 17.6419 19.6729 17.7744 19.7289 17.7186C19.7358 17.7116 19.7429 17.5791 19.6869 17.6349ZM22.4124 17.6768V18.0532C22.5 17.8582 22.5 17.8718 22.4124 17.6768ZM0.189082 18.7644C0.1821 18.7713 0.175106 18.9038 0.231021 18.8479C0.238015 18.841 0.244996 18.7085 0.189082 18.7644ZM14.4875 19.0571C14.8511 19.2093 15.2264 19.1824 15.6196 19.1826C15.2561 19.0304 14.8807 19.0574 14.4875 19.0571ZM0.0213623 19.4336V19.81C0.108927 19.615 0.108927 19.6286 0.0213623 19.4336ZM4.46603 19.5173C4.45904 19.5242 4.45205 19.6567 4.50797 19.6009C4.51495 19.5939 4.52194 19.4614 4.46603 19.5173ZM20.1901 19.6428C20.1831 19.6497 20.1761 19.7822 20.2321 19.7263C20.239 19.7194 20.246 19.5869 20.1901 19.6428ZM22.0351 19.5591V19.9355C22.1226 19.7405 22.1226 19.7541 22.0351 19.5591ZM26.4797 19.7683C26.4728 19.7752 26.4657 19.9077 26.5217 19.8518C26.5286 19.8449 26.5357 19.7124 26.4797 19.7683ZM4.29831 20.312V21.3159C4.44441 20.9683 4.44441 20.6596 4.29831 20.312ZM26.312 20.312V21.3159C26.4581 20.9683 26.4581 20.6596 26.312 20.312ZM20.274 20.4375V21.1904C20.3936 20.9037 20.3936 20.7242 20.274 20.4375ZM5.30465 21.1904V22.6963H9.20422C8.18182 22.2682 6.53913 22.5708 5.43044 22.5708C5.43044 22.1065 5.48583 21.6211 5.30465 21.1904ZM56.5022 21.4414V23.0727C56.7024 22.597 56.7024 21.9171 56.5022 21.4414ZM22.077 21.7761C22.07 21.783 22.063 21.9155 22.119 21.8596C22.1259 21.8527 22.1329 21.7202 22.077 21.7761ZM36.7528 22.3198V22.6963C36.8404 22.5012 36.8404 22.5148 36.7528 22.3198ZM41.1974 22.4035C41.1905 22.4104 41.1835 22.5429 41.2394 22.4871C41.2464 22.4802 41.2534 22.3477 41.1974 22.4035ZM16.3744 22.5708C16.8397 22.7655 17.3829 22.6963 17.8839 22.6963H20.3998C19.9345 22.5015 19.3913 22.5708 18.8903 22.5708H16.3744ZM61.2824 22.5708V23.1982C61.3868 22.9435 61.3868 22.8255 61.2824 22.5708ZM48.3676 23.1564C48.3607 23.1633 48.3536 23.2958 48.4096 23.24C48.4165 23.2331 48.4236 23.1006 48.3676 23.1564ZM56.3764 23.0727V23.4492C56.464 23.2542 56.464 23.2677 56.3764 23.0727ZM48.4934 23.4074C48.4865 23.4143 48.4794 23.5468 48.5354 23.491C48.5423 23.4841 48.5494 23.3516 48.4934 23.4074ZM43.6714 23.4492V24.0766C43.7758 23.8218 43.7758 23.704 43.6714 23.4492ZM56.2925 23.5329C56.2856 23.5398 56.2786 23.6723 56.3346 23.6165C56.3415 23.6096 56.3485 23.477 56.2925 23.5329ZM61.1566 23.5747V24.0766C61.2459 23.8559 61.2459 23.7954 61.1566 23.5747ZM56.1667 23.7839C56.1598 23.7908 56.1528 23.9233 56.2088 23.8674C56.2157 23.8605 56.2227 23.728 56.1667 23.7839ZM43.7972 24.0766V24.5786C43.8865 24.3578 43.8865 24.2973 43.7972 24.0766ZM61.0727 24.2858C61.0657 24.2927 61.0587 24.4252 61.1147 24.3694C61.1216 24.3625 61.1286 24.23 61.0727 24.2858ZM40.5266 24.4531V24.8295C40.6141 24.6345 40.6141 24.6481 40.5266 24.4531ZM14.4456 24.6204C14.3896 24.6762 14.5225 24.6692 14.5294 24.6623C14.5854 24.6064 14.4525 24.6135 14.4456 24.6204ZM43.923 24.5786V25.0805C44.0123 24.8598 44.0123 24.7993 43.923 24.5786ZM60.9469 24.6623C60.9399 24.6692 60.9329 24.8017 60.9889 24.7458C60.9958 24.7389 61.0028 24.6064 60.9469 24.6623ZM49.9191 24.9968C49.8632 25.0527 49.996 25.0456 50.0029 25.0387C50.0589 24.9829 49.9261 24.9899 49.9191 24.9968ZM50.6739 25.3733C50.6179 25.4291 50.7507 25.4221 50.7577 25.4152C50.8136 25.3594 50.6808 25.3664 50.6739 25.3733ZM54.1961 25.3733C54.1401 25.4291 54.2729 25.4221 54.2799 25.4152C54.3358 25.3594 54.203 25.3664 54.1961 25.3733ZM29.1634 25.4988C29.1074 25.5546 29.2402 25.5476 29.2471 25.5407C29.3031 25.4848 29.1703 25.4919 29.1634 25.4988ZM50.8416 25.457C51.031 25.5427 51.1328 25.5606 51.3447 25.5825C51.1553 25.4968 51.0535 25.4788 50.8416 25.457ZM53.7348 25.457C53.8918 25.5429 53.9295 25.551 54.1122 25.5825C53.9552 25.4965 53.9173 25.4885 53.7348 25.457ZM7.27541 25.6243C7.21949 25.6801 7.35228 25.6731 7.35926 25.6662C7.41517 25.6103 7.28239 25.6174 7.27541 25.6243ZM12.8103 25.6243C12.7543 25.6801 12.8872 25.6731 12.8941 25.6662C12.9501 25.6103 12.8172 25.6174 12.8103 25.6243ZM29.4149 25.6243C29.359 25.6801 29.4918 25.6731 29.4987 25.6662C29.5547 25.6103 29.4219 25.6174 29.4149 25.6243ZM51.4705 25.5825C51.9058 25.7912 52.3744 25.8235 52.8543 25.8334C52.4189 25.6248 51.9504 25.5924 51.4705 25.5825ZM53.2316 25.5825C53.4211 25.6682 53.5228 25.6861 53.7348 25.708C53.5454 25.6222 53.4436 25.6043 53.2316 25.5825ZM60.4437 25.6662C60.4368 25.6731 60.4297 25.8056 60.4857 25.7497C60.4926 25.7428 60.4997 25.6103 60.4437 25.6662ZM7.52699 25.7497C7.47108 25.8056 7.60386 25.7986 7.61084 25.7917C7.66676 25.7358 7.53397 25.7428 7.52699 25.7497ZM29.6665 25.7497C29.6105 25.8056 29.7434 25.7986 29.7503 25.7917C29.8063 25.7358 29.6734 25.7428 29.6665 25.7497ZM33.6919 25.7497C33.6359 25.8056 33.7687 25.7986 33.7757 25.7917C33.8316 25.7358 33.6988 25.7428 33.6919 25.7497ZM7.77858 25.8752C7.72266 25.9311 7.85545 25.924 7.86243 25.9171C7.91834 25.8613 7.78556 25.8683 7.77858 25.8752ZM12.1814 25.8752C12.1254 25.9311 12.2582 25.924 12.2651 25.9171C12.3211 25.8613 12.1883 25.8683 12.1814 25.8752ZM29.8342 25.8334C29.9912 25.9194 30.0289 25.9274 30.2116 25.9589C30.0546 25.873 30.0169 25.8649 29.8342 25.8334ZM33.2306 25.8334C33.3876 25.9194 33.4253 25.9274 33.608 25.9589C33.451 25.873 33.4133 25.8649 33.2306 25.8334ZM8.15595 26.0007C8.10004 26.0566 8.23283 26.0495 8.23981 26.0426C8.29572 25.9868 8.16294 25.9938 8.15595 26.0007ZM11.7201 25.9589C11.8771 26.0449 11.9148 26.0529 12.0975 26.0844C11.9405 25.9985 11.9027 25.9904 11.7201 25.9589ZM30.3374 25.9589C30.4944 26.0449 30.5321 26.0529 30.7148 26.0844C30.5578 25.9985 30.52 25.9904 30.3374 25.9589ZM32.6016 25.9589C32.8242 26.0567 32.9836 26.0734 33.2306 26.0844C33.0081 25.9867 32.8487 25.97 32.6016 25.9589ZM8.32367 26.0844C8.51312 26.1701 8.61486 26.1881 8.82684 26.2099C8.63739 26.1242 8.53566 26.1063 8.32367 26.0844ZM11.3427 26.0844C11.4997 26.1704 11.5374 26.1784 11.7201 26.2099C11.5631 26.1239 11.5253 26.1159 11.3427 26.0844ZM30.8405 26.0844C31.3056 26.2792 31.849 26.2099 32.3501 26.2099C31.885 26.0151 31.3416 26.0844 30.8405 26.0844ZM8.95264 26.2099C9.10968 26.2959 9.14741 26.3039 9.33001 26.3354C9.17299 26.2494 9.13524 26.2414 8.95264 26.2099ZM10.5879 26.2099C10.8105 26.3077 10.9698 26.3244 11.2169 26.3354C10.9944 26.2376 10.835 26.2209 10.5879 26.2099ZM44.7196 26.4191C44.7127 26.426 44.7057 26.5585 44.7616 26.5027C44.7686 26.4958 44.7756 26.3633 44.7196 26.4191Z" fill="#F38A04"/>
<path d="M60.0247 26.335L60.1509 26.4609L60.0247 26.335Z" fill="#FEFEFD"/>
<path d="M69.459 26.335L69.5848 26.4604L69.459 26.335ZM75.7486 26.335L75.8744 26.4604L75.7486 26.335ZM80.5288 26.335L80.6545 26.4604L80.5288 26.335ZM84.9315 26.335L85.0573 26.4604L84.9315 26.335ZM1.78259 26.4604L1.90839 26.5859L1.78259 26.4604ZM16.2487 26.4604L16.3745 26.5859L16.2487 26.4604ZM23.7963 26.4604L23.9221 26.5859L23.7963 26.4604ZM39.3946 26.4604L39.5204 26.5859L39.3946 26.4604ZM69.3332 26.4604L69.459 26.5859L69.3332 26.4604ZM75.8744 26.4604L76.0002 26.5859L75.8744 26.4604ZM80.6545 26.4604L80.7803 26.5859L80.6545 26.4604ZM85.0573 26.4604L85.1831 26.5859L85.0573 26.4604ZM16.3745 26.5859L16.5003 26.7114L16.3745 26.5859ZM23.9221 26.5859L24.0479 26.7114L23.9221 26.5859ZM44.8037 26.5859L44.9295 26.7114L44.8037 26.5859ZM69.2074 26.5859L69.3332 26.7114L69.2074 26.5859ZM76.0002 26.5859L76.126 26.7114L76.0002 26.5859ZM80.7803 26.5859L80.9061 26.7114L80.7803 26.5859ZM85.1831 26.5859L85.3089 26.7114L85.1831 26.5859ZM16.5003 26.7114L16.6261 26.8369L16.5003 26.7114ZM24.0479 26.7114L24.1737 26.8369L24.0479 26.7114ZM44.9713 26.7951C44.9644 26.802 44.9574 26.9345 45.0134 26.8787C45.0203 26.8718 45.0273 26.7393 44.9713 26.7951ZM69.0816 26.7114L69.2074 26.8369L69.0816 26.7114ZM76.126 26.7114L76.2518 26.8369L76.126 26.7114ZM80.9061 26.7114L81.0319 26.8369L80.9061 26.7114ZM85.3089 26.7114L85.4347 26.8369L85.3089 26.7114ZM2.03418 26.8369L2.15997 26.9624L2.03418 26.8369ZM39.143 26.8369L39.2688 26.9624L39.143 26.8369ZM68.9558 26.8369L69.0816 26.9624L68.9558 26.8369ZM76.2518 26.8369L76.3776 26.9624L76.2518 26.8369ZM81.0319 26.8369L81.1577 26.9624L81.0319 26.8369ZM85.4347 26.8369L85.5605 26.9624L85.4347 26.8369ZM2.15997 26.9624L2.28576 27.0879L2.15997 26.9624ZM39.0172 26.9624L39.143 27.0879L39.0172 26.9624ZM45.0552 26.9624L45.181 27.0879L45.0552 26.9624ZM68.83 26.9624L68.9558 27.0879L68.83 26.9624ZM76.3776 26.9624L76.5034 27.0879L76.3776 26.9624ZM81.1577 26.9624L81.2835 27.0879L81.1577 26.9624ZM85.5605 26.9624L85.6862 27.0879L85.5605 26.9624ZM2.28576 27.0879L2.41156 27.2134L2.28576 27.0879ZM24.2995 27.0879L24.4253 27.2134L24.2995 27.0879ZM38.8914 27.0879L39.0172 27.2134L38.8914 27.0879ZM45.181 27.0879L45.3068 27.2134L45.181 27.0879ZM68.7043 27.0879L68.83 27.2134L68.7043 27.0879ZM76.5034 27.0879L76.6292 27.2134L76.5034 27.0879ZM81.2835 27.0879L81.4093 27.2134L81.2835 27.0879ZM85.6862 27.0879L85.812 27.2134L85.6862 27.0879ZM2.41156 27.2134L2.53735 27.3389L2.41156 27.2134ZM24.4253 27.2134L24.5511 27.3389L24.4253 27.2134ZM38.7656 27.2134L38.8914 27.3389L38.7656 27.2134ZM45.3068 27.2134L45.4326 27.3389L45.3068 27.2134ZM68.5785 27.2134L68.7043 27.3389L68.5785 27.2134ZM76.6292 27.2134L76.755 27.3389L76.6292 27.2134ZM81.4093 27.2134L81.5351 27.3389L81.4093 27.2134ZM85.812 27.2134L85.9378 27.3389L85.812 27.2134ZM17.0035 27.3389L17.1293 27.4643L17.0035 27.3389ZM24.5511 27.3389L24.6768 27.4643L24.5511 27.3389ZM38.6398 27.3389L38.7656 27.4643L38.6398 27.3389Z" fill="#F38A04"/>
<path d="M59.144 27.3389L58.7666 27.8408C58.9875 27.668 59.0861 27.6031 59.144 27.3389Z" fill="#FEFEFD"/>
</svg>
